<?xml version="1.0" encoding="UTF-8"?>
<!DOCTYPE svg PUBLIC "-//W3C//DTD SVG 1.1//EN" "http://www.w3.org/Graphics/SVG/1.1/DTD/svg11.dtd">
<!-- Creator: CorelDRAW -->
<svg xmlns="http://www.w3.org/2000/svg" xml:space="preserve" width="156.226mm" height="99.5203mm" version="1.1" style="shape-rendering:geometricPrecision; text-rendering:geometricPrecision; image-rendering:optimizeQuality; fill-rule:evenodd; clip-rule:evenodd"
viewBox="0 0 15642.22 9964.53"
 xmlns:xlink="http://www.w3.org/1999/xlink"
 xmlns:xodm="http://www.corel.com/coreldraw/odm/2003">
 <defs>
  <style type="text/css">
   <![CDATA[
    .fil0 {fill:black}
   ]]>
  </style>
 </defs>
 <g id="Camada_x0020_1">
  <metadata id="CorelCorpID_0Corel-Layer"/>
  <path class="fil0" d="M3029.84 9964.53l-3029.84 0 0 -5070.98 3029.84 0 0 8.86 1414.27 0c642.18,0 1167.58,-525.41 1167.58,-1167.58 0,-642.18 -525.41,-1167.58 -1167.58,-1167.58l-4415.39 0 1889.49 -2567.24 1383.69 0c2759.99,34.7 4781.85,740.45 5272.97,2837.77 126.21,538.97 113.55,856.76 -3.08,1394.96 -309.9,1430.04 -1159.83,2226.96 -2500.46,2448.59l3193.58 3283.21 -4015.45 0 -2219.63 -2609.05 0 2609.05z"/>
  <path class="fil0" d="M7746.89 7343.79c891.99,-664.26 1586.91,-1439.95 1882.36,-2441.38l1192.16 0c642.18,0 1167.58,-525.41 1167.58,-1167.58 0,-642.18 -525.42,-1167.58 -1167.58,-1167.58l-1114.31 0c-195.1,-998.12 -745.31,-1867.11 -1759.91,-2567.24l1732 0c2772.84,34.86 4800.64,747.05 5279.72,2867.14 394.6,1746.36 -664.43,3509.02 -2510.29,3814.18l3193.58 3283.21 -4015.45 0 -2219.63 -2609.05 -1660.25 -11.68z"/>
 </g>
</svg>
