<?xml version="1.0" encoding="UTF-8"?>
<!DOCTYPE svg PUBLIC "-//W3C//DTD SVG 1.1//EN" "http://www.w3.org/Graphics/SVG/1.1/DTD/svg11.dtd">
<!-- Creator: CorelDRAW 2020 -->
<svg xmlns="http://www.w3.org/2000/svg" xml:space="preserve" width="15mm" height="15mm" version="1.1" style="shape-rendering:geometricPrecision; text-rendering:geometricPrecision; image-rendering:optimizeQuality; fill-rule:evenodd; clip-rule:evenodd"
viewBox="0 0 522.19 522.19"
 xmlns:xlink="http://www.w3.org/1999/xlink"
 xmlns:xodm="http://www.corel.com/coreldraw/odm/2003">
 <defs>
  <style type="text/css">
   <![CDATA[
    .fil0 {fill:#727376}
   ]]>
  </style>
 </defs>
 <g id="Camada_x0020_1">
  <metadata id="CorelCorpID_0Corel-Layer"/>
  <path class="fil0" d="M261.09 0c144.2,0 261.09,116.89 261.09,261.09 0,144.2 -116.89,261.09 -261.09,261.09 -144.2,0 -261.09,-116.89 -261.09,-261.09 0,-144.2 116.89,-261.09 261.09,-261.09zm-150.51 144.5c-11.56,2.39 -10.83,11.8 -10.83,24.15l0 174.07c0,9.78 -1.94,24.97 3.54,31.15 5.51,6.22 20.67,4.07 30.55,4.07l243.69 0c7.42,0 28.89,0.9 34.39,-0.28 10.9,-2.34 10.51,-12.2 10.51,-24.15l0 -174.07c0,-9.82 1.92,-24.97 -3.54,-31.16 -5.49,-6.21 -20.69,-4.07 -30.55,-4.07l-243.7 0c-7.49,0 -28.22,-0.94 -34.06,0.27zm202.99 119.93c3.24,2.04 17.48,14.93 20.69,17.75l61.75 55 0.06 -145.58 -74.73 64.93c-2.24,1.88 -6.61,5.6 -7.76,7.9zm-52.48 9.9l7.29 -5.96c1.57,-1.33 1.75,-1.81 3.48,-3.12 1.78,-1.34 1.85,-1.78 3.38,-3.2 1.35,-1.24 2.24,-1.54 3.65,-2.96l7.01 -6.2c1.65,-1.25 1.77,-1.55 3.48,-3.1l45.95 -39.93c1.73,-1.65 1.45,-1.68 3.45,-3.14 1.65,-1.21 1.85,-1.82 3.44,-3.13 1.6,-1.32 2.02,-1.46 3.57,-3.04 1.49,-1.52 2.17,-1.73 3.62,-3.01 1.56,-1.38 1.87,-1.88 3.51,-3.09l14.05 -12.35c1.51,-1.1 6.12,-6.06 7.55,-6.43l-226.29 0 6.89 6.48c1.78,1.43 1.75,1.47 3.46,3.15l10.63 9.18c2.04,1.54 1.5,1.07 3.51,3.09l49.37 43.07c1.57,1.21 1.95,1.8 3.45,3.14l21.34 18.31c2.73,2.24 11.01,10.52 14.19,12.24zm-135.05 63.52l20.81 -18.11c2.06,-2.22 3.33,-2.56 5.13,-4.49l12.53 -11.47c1.07,-0.96 2.03,-1.48 3.07,-2.36 1.29,-1.1 1.08,-1.21 2.32,-2.45 0.98,-0.98 1.62,-1.24 2.74,-2.1l20.49 -18.5c4.01,-3.09 3.6,-3.45 5.35,-4.86 0.89,-0.72 1.82,-1.23 2.74,-2.08l7.52 -7.33 -27.95 -24.73c-1.41,-1.08 -1.09,-1.1 -2.41,-2.37l-52.38 -45.26 0.06 146.13zm25.13 13.41l220.7 0.05 -4.72 -4.79c-1.77,-1.71 -2.8,-2.07 -4.82,-4.19l-63.83 -56.82c-2.81,-2.11 -2.38,-3.54 -5.94,-4.19l-21.71 19.55c-6.53,5.16 -12.92,6.1 -19.6,0.06 -1.59,-1.44 -1.63,-1.74 -3.47,-3.11 -1.81,-1.35 -2.13,-2.15 -3.75,-3.44 -1.86,-1.49 -1.7,-1.19 -3.56,-3.06l-11.21 -9.67c-2.28,1.26 -2.81,1.82 -4.83,4.01 -1.8,1.96 -3.17,2.27 -4.91,4.11l-53.64 47.83c-1.94,1.44 -2.9,2.94 -5.03,4.57 -1.98,1.52 -2.75,2.87 -4.67,4.32 -1.13,0.86 -1.68,1.14 -2.68,2.12l-2.35 2.66z"/>
 </g>
</svg>
