<?xml version="1.0" encoding="UTF-8"?>
<!DOCTYPE svg PUBLIC "-//W3C//DTD SVG 1.1//EN" "http://www.w3.org/Graphics/SVG/1.1/DTD/svg11.dtd">
<!-- Creator: CorelDRAW 2020 -->
<svg xmlns="http://www.w3.org/2000/svg" xml:space="preserve" width="15mm" height="15mm" version="1.1" style="shape-rendering:geometricPrecision; text-rendering:geometricPrecision; image-rendering:optimizeQuality; fill-rule:evenodd; clip-rule:evenodd"
viewBox="0 0 281.77 281.77"
 xmlns:xlink="http://www.w3.org/1999/xlink"
 xmlns:xodm="http://www.corel.com/coreldraw/odm/2003">
 <defs>
  <style type="text/css">
   <![CDATA[
    .fil0 {fill:#727376}
   ]]>
  </style>
 </defs>
 <g id="Camada_x0020_1">
  <metadata id="CorelCorpID_0Corel-Layer"/>
  <path class="fil0" d="M140.88 0c77.81,0 140.88,63.07 140.88,140.88 0,77.81 -63.07,140.88 -140.88,140.88 -77.81,0 -140.88,-63.07 -140.88,-140.88 0,-77.81 63.07,-140.88 140.88,-140.88zm-32.91 63.89l65.82 0c24.22,0 44.03,19.81 44.03,44.03l0 65.92c0,24.22 -19.81,44.03 -44.03,44.03l-65.82 0c-24.22,0 -44.03,-19.81 -44.03,-44.03l0 -65.92c0,-24.22 19.81,-44.03 44.03,-44.03zm32.87 37.64c21.73,0 39.35,17.62 39.35,39.35 0,21.73 -17.62,39.35 -39.35,39.35 -21.73,0 -39.35,-17.62 -39.35,-39.35 0,-21.73 17.62,-39.35 39.35,-39.35zm0 13.3c14.39,0 26.05,11.67 26.05,26.05 0,14.39 -11.67,26.05 -26.05,26.05 -14.39,0 -26.05,-11.67 -26.05,-26.05 0,-14.39 11.67,-26.05 26.05,-26.05zm41.06 -24.2c4.99,0 9.04,4.05 9.04,9.04 0,4.99 -4.05,9.04 -9.04,9.04 -4.99,0 -9.04,-4.05 -9.04,-9.04 0,-4.99 4.05,-9.04 9.04,-9.04zm-75.08 -12.58l68.11 0c15.81,0 28.74,12.93 28.74,28.74l0 68.19c0,15.81 -12.93,28.74 -28.74,28.74l-68.11 0c-15.81,0 -28.74,-12.93 -28.74,-28.74l0 -68.19c0,-15.81 12.93,-28.74 28.74,-28.74z"/>
 </g>
</svg>
