<?xml version="1.0" encoding="UTF-8"?>
<!DOCTYPE svg PUBLIC "-//W3C//DTD SVG 1.1//EN" "http://www.w3.org/Graphics/SVG/1.1/DTD/svg11.dtd">
<!-- Creator: CorelDRAW 2020 -->
<svg xmlns="http://www.w3.org/2000/svg" xml:space="preserve" width="15mm" height="15mm" version="1.1" style="shape-rendering:geometricPrecision; text-rendering:geometricPrecision; image-rendering:optimizeQuality; fill-rule:evenodd; clip-rule:evenodd"
viewBox="0 0 192.94 192.94"
 xmlns:xlink="http://www.w3.org/1999/xlink"
 xmlns:xodm="http://www.corel.com/coreldraw/odm/2003">
 <defs>
  <style type="text/css">
   <![CDATA[
    .fil0 {fill:#727376}
   ]]>
  </style>
 </defs>
 <g id="Camada_x0020_1">
  <metadata id="CorelCorpID_0Corel-Layer"/>
  <path class="fil0" d="M96.47 0c53.28,0 96.47,43.19 96.47,96.47 0,53.28 -43.19,96.47 -96.47,96.47 -53.28,0 -96.47,-43.19 -96.47,-96.47 0,-53.28 43.19,-96.47 96.47,-96.47zm6.65 87.92l-0.13 -9.76 -23.46 -0.01 0.02 70.66 23.46 0.09c0.25,-10.95 0.02,-22.15 0.02,-33.11 0,-5.38 -0.57,-10.34 1.95,-14.44 1.85,-3.01 5.11,-6.04 10.21,-6.26 11.45,-0.49 12.62,9.81 12.62,20.31 -0,11.07 -0.25,22.43 0.01,33.47l23.47 0.02c0.14,-11.03 0.02,-22.1 0.02,-33.1 0,-10.92 0.03,-19.93 -5.07,-27.97 -7.56,-11.91 -24.41,-14.38 -35.05,-7.94 -2.33,1.41 -6.91,5.78 -8.07,8.03zm-60.14 60.86l23.47 0.13 0.02 -70.74 -23.48 -0.01 -0.02 70.62zm8.37 -104.24c-16.16,3.82 -11.13,27.48 6.92,23.55 16.01,-3.48 11.16,-27.83 -6.92,-23.55z"/>
 </g>
</svg>
